<svg xmlns="http://www.w3.org/2000/svg" width="812.25" height="423.425" viewBox="0 0 812.25 423.425">
  <g id="Grupo_950372" data-name="Grupo 950372" transform="translate(-417.75 -2287.5)">
    <g id="Grupo_84096" data-name="Grupo 84096" transform="translate(6910 11547)">
      <rect id="Rectángulo_34862" data-name="Rectángulo 34862" width="167.825" height="58.225" transform="translate(-6439.492 -9189.225)" fill="#f2f231"/>
      <rect id="Rectángulo_34868" data-name="Rectángulo 34868" width="164.4" height="58.225" transform="translate(-6243.125 -9110.451)" fill="#f2f231"/>
      <rect id="Rectángulo_34871" data-name="Rectángulo 34871" width="164.4" height="58.225" transform="translate(-6049.043 -9029.393)" fill="#f2f231"/>
      <rect id="Rectángulo_34873" data-name="Rectángulo 34873" width="164.4" height="58.225" transform="translate(-5853.818 -8948.335)" fill="#f2f231"/>
      <rect id="Rectángulo_34872" data-name="Rectángulo 34872" width="164.4" height="58.225" transform="translate(-6049.043 -8948.335)" fill="#1c954d"/>
      <rect id="Rectángulo_34869" data-name="Rectángulo 34869" width="164.4" height="58.225" transform="translate(-6243.125 -9189.225)" fill="#f1a40b"/>
      <rect id="Rectángulo_34870" data-name="Rectángulo 34870" width="164.4" height="58.225" transform="translate(-6047.901 -9110.451)" fill="#f16f0b"/>
      <rect id="Rectángulo_34875" data-name="Rectángulo 34875" width="164.4" height="58.225" transform="translate(-6047.901 -9190.367)" fill="#f10b0b"/>
      <rect id="Rectángulo_34876" data-name="Rectángulo 34876" width="164.4" height="58.225" transform="translate(-5853.818 -9190.367)" fill="#f10b0b"/>
      <rect id="Rectángulo_34877" data-name="Rectángulo 34877" width="164.4" height="58.225" transform="translate(-5853.818 -9110.451)" fill="#f10b0b"/>
      <rect id="Rectángulo_34874" data-name="Rectángulo 34874" width="164.4" height="58.225" transform="translate(-5853.818 -9029.393)" fill="#f16f0b"/>
      <rect id="Rectángulo_34863" data-name="Rectángulo 34863" width="167.825" height="58.225" transform="translate(-6439.492 -9108.167)" fill="#25c766"/>
      <rect id="Rectángulo_34864" data-name="Rectángulo 34864" width="167.825" height="58.225" transform="translate(-6439.492 -9029.393)" fill="#25c766"/>
      <rect id="Rectángulo_34865" data-name="Rectángulo 34865" width="167.825" height="58.225" transform="translate(-6439.492 -8950.617)" fill="#25c766"/>
      <rect id="Rectángulo_34866" data-name="Rectángulo 34866" width="164.4" height="58.225" transform="translate(-6243.125 -8950.617)" fill="#25c766"/>
      <rect id="Rectángulo_34867" data-name="Rectángulo 34867" width="164.4" height="58.225" transform="translate(-6243.125 -9029.393)" fill="#25c766"/>
      <path id="Trazado_636112" data-name="Trazado 636112" d="M6.087,7.359,10.1,18.7l4-11.344h4.232V23H15.1V18.725l.322-7.38L11.2,23H8.988L4.777,11.355,5.1,18.725V23H1.876V7.359ZM26.293,23.215a5.706,5.706,0,0,1-4.163-1.568,5.575,5.575,0,0,1-1.606-4.179v-.3a7.021,7.021,0,0,1,.677-3.131,4.967,4.967,0,0,1,1.917-2.127,5.382,5.382,0,0,1,2.831-.747,4.824,4.824,0,0,1,3.754,1.5,6.111,6.111,0,0,1,1.37,4.265V18.2h-7.4a2.884,2.884,0,0,0,.908,1.826,2.744,2.744,0,0,0,1.917.688,3.351,3.351,0,0,0,2.8-1.3l1.525,1.708a4.66,4.66,0,0,1-1.891,1.542A6.2,6.2,0,0,1,26.293,23.215Zm-.354-9.539a1.944,1.944,0,0,0-1.5.623,3.219,3.219,0,0,0-.736,1.783h4.318v-.247a2.3,2.3,0,0,0-.559-1.6A2.006,2.006,0,0,0,25.939,13.676ZM32.352,17.1a7,7,0,0,1,1.219-4.329,3.956,3.956,0,0,1,3.335-1.611,3.56,3.56,0,0,1,2.8,1.268V6.5h3.115V23h-2.8l-.15-1.235a3.653,3.653,0,0,1-2.986,1.45A3.945,3.945,0,0,1,33.593,21.6,7.23,7.23,0,0,1,32.352,17.1Zm3.1.226a4.576,4.576,0,0,0,.569,2.5,1.855,1.855,0,0,0,1.654.87,2.078,2.078,0,0,0,2.03-1.214V14.9A2.048,2.048,0,0,0,37.7,13.687Q35.456,13.687,35.456,17.328ZM48.508,23H45.393V11.377h3.115ZM45.21,8.369a1.529,1.529,0,0,1,.467-1.149,2.014,2.014,0,0,1,2.541,0,1.52,1.52,0,0,1,.473,1.149,1.524,1.524,0,0,1-.478,1.16,1.991,1.991,0,0,1-2.524,0A1.524,1.524,0,0,1,45.21,8.369Zm5.371,8.712A6.893,6.893,0,0,1,51.247,14,4.876,4.876,0,0,1,53.165,11.9a5.594,5.594,0,0,1,2.906-.741,5.293,5.293,0,0,1,3.84,1.439,5.777,5.777,0,0,1,1.66,3.91l.021.795A6.075,6.075,0,0,1,60.1,21.6a5.787,5.787,0,0,1-8.019.005,6.182,6.182,0,0,1-1.5-4.383Zm3.1.226a4.333,4.333,0,0,0,.623,2.53,2.24,2.24,0,0,0,3.545.011,4.741,4.741,0,0,0,.634-2.766,4.29,4.29,0,0,0-.634-2.514,2.061,2.061,0,0,0-1.783-.892,2.028,2.028,0,0,0-1.762.886A4.821,4.821,0,0,0,53.686,17.307Z" transform="translate(-6386.976 -9174.384)" fill="#12263f"/>
      <path id="Trazado_636117" data-name="Trazado 636117" d="M6.087,7.359,10.1,18.7l4-11.344h4.232V23H15.1V18.725l.322-7.38L11.2,23H8.988L4.777,11.355,5.1,18.725V23H1.876V7.359ZM26.293,23.215a5.706,5.706,0,0,1-4.163-1.568,5.575,5.575,0,0,1-1.606-4.179v-.3a7.021,7.021,0,0,1,.677-3.131,4.967,4.967,0,0,1,1.917-2.127,5.382,5.382,0,0,1,2.831-.747,4.824,4.824,0,0,1,3.754,1.5,6.111,6.111,0,0,1,1.37,4.265V18.2h-7.4a2.884,2.884,0,0,0,.908,1.826,2.744,2.744,0,0,0,1.917.688,3.351,3.351,0,0,0,2.8-1.3l1.525,1.708a4.66,4.66,0,0,1-1.891,1.542A6.2,6.2,0,0,1,26.293,23.215Zm-.354-9.539a1.944,1.944,0,0,0-1.5.623,3.219,3.219,0,0,0-.736,1.783h4.318v-.247a2.3,2.3,0,0,0-.559-1.6A2.006,2.006,0,0,0,25.939,13.676ZM32.352,17.1a7,7,0,0,1,1.219-4.329,3.956,3.956,0,0,1,3.335-1.611,3.56,3.56,0,0,1,2.8,1.268V6.5h3.115V23h-2.8l-.15-1.235a3.653,3.653,0,0,1-2.986,1.45A3.945,3.945,0,0,1,33.593,21.6,7.23,7.23,0,0,1,32.352,17.1Zm3.1.226a4.576,4.576,0,0,0,.569,2.5,1.855,1.855,0,0,0,1.654.87,2.078,2.078,0,0,0,2.03-1.214V14.9A2.048,2.048,0,0,0,37.7,13.687Q35.456,13.687,35.456,17.328ZM48.508,23H45.393V11.377h3.115ZM45.21,8.369a1.529,1.529,0,0,1,.467-1.149,2.014,2.014,0,0,1,2.541,0,1.52,1.52,0,0,1,.473,1.149,1.524,1.524,0,0,1-.478,1.16,1.991,1.991,0,0,1-2.524,0A1.524,1.524,0,0,1,45.21,8.369Zm5.371,8.712A6.893,6.893,0,0,1,51.247,14,4.876,4.876,0,0,1,53.165,11.9a5.594,5.594,0,0,1,2.906-.741,5.293,5.293,0,0,1,3.84,1.439,5.777,5.777,0,0,1,1.66,3.91l.021.795A6.075,6.075,0,0,1,60.1,21.6a5.787,5.787,0,0,1-8.019.005,6.182,6.182,0,0,1-1.5-4.383Zm3.1.226a4.333,4.333,0,0,0,.623,2.53,2.24,2.24,0,0,0,3.545.011,4.741,4.741,0,0,0,.634-2.766,4.29,4.29,0,0,0-.634-2.514,2.061,2.061,0,0,0-1.783-.892,2.028,2.028,0,0,0-1.762.886A4.821,4.821,0,0,0,53.686,17.307Z" transform="translate(-6194.034 -9095.608)" fill="#12263f"/>
      <path id="Trazado_636122" data-name="Trazado 636122" d="M6.087,7.359,10.1,18.7l4-11.344h4.232V23H15.1V18.725l.322-7.38L11.2,23H8.988L4.777,11.355,5.1,18.725V23H1.876V7.359ZM26.293,23.215a5.706,5.706,0,0,1-4.163-1.568,5.575,5.575,0,0,1-1.606-4.179v-.3a7.021,7.021,0,0,1,.677-3.131,4.967,4.967,0,0,1,1.917-2.127,5.382,5.382,0,0,1,2.831-.747,4.824,4.824,0,0,1,3.754,1.5,6.111,6.111,0,0,1,1.37,4.265V18.2h-7.4a2.884,2.884,0,0,0,.908,1.826,2.744,2.744,0,0,0,1.917.688,3.351,3.351,0,0,0,2.8-1.3l1.525,1.708a4.66,4.66,0,0,1-1.891,1.542A6.2,6.2,0,0,1,26.293,23.215Zm-.354-9.539a1.944,1.944,0,0,0-1.5.623,3.219,3.219,0,0,0-.736,1.783h4.318v-.247a2.3,2.3,0,0,0-.559-1.6A2.006,2.006,0,0,0,25.939,13.676ZM32.352,17.1a7,7,0,0,1,1.219-4.329,3.956,3.956,0,0,1,3.335-1.611,3.56,3.56,0,0,1,2.8,1.268V6.5h3.115V23h-2.8l-.15-1.235a3.653,3.653,0,0,1-2.986,1.45A3.945,3.945,0,0,1,33.593,21.6,7.23,7.23,0,0,1,32.352,17.1Zm3.1.226a4.576,4.576,0,0,0,.569,2.5,1.855,1.855,0,0,0,1.654.87,2.078,2.078,0,0,0,2.03-1.214V14.9A2.048,2.048,0,0,0,37.7,13.687Q35.456,13.687,35.456,17.328ZM48.508,23H45.393V11.377h3.115ZM45.21,8.369a1.529,1.529,0,0,1,.467-1.149,2.014,2.014,0,0,1,2.541,0,1.52,1.52,0,0,1,.473,1.149,1.524,1.524,0,0,1-.478,1.16,1.991,1.991,0,0,1-2.524,0A1.524,1.524,0,0,1,45.21,8.369Zm5.371,8.712A6.893,6.893,0,0,1,51.247,14,4.876,4.876,0,0,1,53.165,11.9a5.594,5.594,0,0,1,2.906-.741,5.293,5.293,0,0,1,3.84,1.439,5.777,5.777,0,0,1,1.66,3.91l.021.795A6.075,6.075,0,0,1,60.1,21.6a5.787,5.787,0,0,1-8.019.005,6.182,6.182,0,0,1-1.5-4.383Zm3.1.226a4.333,4.333,0,0,0,.623,2.53,2.24,2.24,0,0,0,3.545.011,4.741,4.741,0,0,0,.634-2.766,4.29,4.29,0,0,0-.634-2.514,2.061,2.061,0,0,0-1.783-.892,2.028,2.028,0,0,0-1.762.886A4.821,4.821,0,0,0,53.686,17.307Z" transform="translate(-5999.951 -9014.551)" fill="#12263f"/>
      <path id="Trazado_636127" data-name="Trazado 636127" d="M6.087,7.359,10.1,18.7l4-11.344h4.232V23H15.1V18.725l.322-7.38L11.2,23H8.988L4.777,11.355,5.1,18.725V23H1.876V7.359ZM26.293,23.215a5.706,5.706,0,0,1-4.163-1.568,5.575,5.575,0,0,1-1.606-4.179v-.3a7.021,7.021,0,0,1,.677-3.131,4.967,4.967,0,0,1,1.917-2.127,5.382,5.382,0,0,1,2.831-.747,4.824,4.824,0,0,1,3.754,1.5,6.111,6.111,0,0,1,1.37,4.265V18.2h-7.4a2.884,2.884,0,0,0,.908,1.826,2.744,2.744,0,0,0,1.917.688,3.351,3.351,0,0,0,2.8-1.3l1.525,1.708a4.66,4.66,0,0,1-1.891,1.542A6.2,6.2,0,0,1,26.293,23.215Zm-.354-9.539a1.944,1.944,0,0,0-1.5.623,3.219,3.219,0,0,0-.736,1.783h4.318v-.247a2.3,2.3,0,0,0-.559-1.6A2.006,2.006,0,0,0,25.939,13.676ZM32.352,17.1a7,7,0,0,1,1.219-4.329,3.956,3.956,0,0,1,3.335-1.611,3.56,3.56,0,0,1,2.8,1.268V6.5h3.115V23h-2.8l-.15-1.235a3.653,3.653,0,0,1-2.986,1.45A3.945,3.945,0,0,1,33.593,21.6,7.23,7.23,0,0,1,32.352,17.1Zm3.1.226a4.576,4.576,0,0,0,.569,2.5,1.855,1.855,0,0,0,1.654.87,2.078,2.078,0,0,0,2.03-1.214V14.9A2.048,2.048,0,0,0,37.7,13.687Q35.456,13.687,35.456,17.328ZM48.508,23H45.393V11.377h3.115ZM45.21,8.369a1.529,1.529,0,0,1,.467-1.149,2.014,2.014,0,0,1,2.541,0,1.52,1.52,0,0,1,.473,1.149,1.524,1.524,0,0,1-.478,1.16,1.991,1.991,0,0,1-2.524,0A1.524,1.524,0,0,1,45.21,8.369Zm5.371,8.712A6.893,6.893,0,0,1,51.247,14,4.876,4.876,0,0,1,53.165,11.9a5.594,5.594,0,0,1,2.906-.741,5.293,5.293,0,0,1,3.84,1.439,5.777,5.777,0,0,1,1.66,3.91l.021.795A6.075,6.075,0,0,1,60.1,21.6a5.787,5.787,0,0,1-8.019.005,6.182,6.182,0,0,1-1.5-4.383Zm3.1.226a4.333,4.333,0,0,0,.623,2.53,2.24,2.24,0,0,0,3.545.011,4.741,4.741,0,0,0,.634-2.766,4.29,4.29,0,0,0-.634-2.514,2.061,2.061,0,0,0-1.783-.892,2.028,2.028,0,0,0-1.762.886A4.821,4.821,0,0,0,53.686,17.307Z" transform="translate(-5804.727 -8933.492)" fill="#12263f"/>
      <path id="Trazado_636123" data-name="Trazado 636123" d="M10.8,23V7.359h5.479a7.194,7.194,0,0,1,4.318,1.09,3.728,3.728,0,0,1,1.472,3.2,3.534,3.534,0,0,1-.591,2.025,3.413,3.413,0,0,1-1.644,1.284,3.3,3.3,0,0,1,1.9,1.214,3.589,3.589,0,0,1,.693,2.234,4.128,4.128,0,0,1-1.439,3.416A6.48,6.48,0,0,1,16.878,23Zm3.223-6.811v4.222h2.761a2.664,2.664,0,0,0,1.778-.542,1.86,1.86,0,0,0,.639-1.5,1.964,1.964,0,0,0-2.224-2.181Zm0-2.277h2.385q2.438-.043,2.438-1.944a1.8,1.8,0,0,0-.618-1.531,3.249,3.249,0,0,0-1.95-.467H14.02ZM31.369,23a3.448,3.448,0,0,1-.312-1.042,3.756,3.756,0,0,1-2.933,1.257,4.127,4.127,0,0,1-2.831-.988,3.178,3.178,0,0,1-1.123-2.492,3.285,3.285,0,0,1,1.37-2.836,6.758,6.758,0,0,1,3.958-1h1.429v-.666a1.915,1.915,0,0,0-.414-1.289,1.627,1.627,0,0,0-1.305-.483,1.85,1.85,0,0,0-1.23.376,1.277,1.277,0,0,0-.446,1.031h-3.1A3.118,3.118,0,0,1,25.052,13a4.118,4.118,0,0,1,1.762-1.348,6.42,6.42,0,0,1,2.557-.489,5.073,5.073,0,0,1,3.411,1.08,3.777,3.777,0,0,1,1.262,3.035v5.038a5.557,5.557,0,0,0,.462,2.5V23ZM28.8,20.841a2.674,2.674,0,0,0,1.268-.306,2.011,2.011,0,0,0,.859-.822v-2h-1.16q-2.331,0-2.481,1.611l-.011.183a1.243,1.243,0,0,0,.408.956A1.586,1.586,0,0,0,28.8,20.841Zm10.914-9.464V23.634A4.158,4.158,0,0,1,38.7,26.625a3.879,3.879,0,0,1-2.943,1.069,6.312,6.312,0,0,1-1.536-.183v-2.46a5.827,5.827,0,0,0,.978.1q1.407,0,1.407-1.493V11.377ZM36.353,8.369a1.529,1.529,0,0,1,.467-1.149,2.021,2.021,0,0,1,2.546,0,1.529,1.529,0,0,1,.467,1.149,1.524,1.524,0,0,1-.478,1.16,1.991,1.991,0,0,1-2.524,0A1.524,1.524,0,0,1,36.353,8.369Zm5.307,8.712A6.893,6.893,0,0,1,42.326,14,4.876,4.876,0,0,1,44.243,11.9a5.594,5.594,0,0,1,2.906-.741A5.293,5.293,0,0,1,50.99,12.6a5.777,5.777,0,0,1,1.66,3.91l.021.795A6.075,6.075,0,0,1,51.177,21.6a5.19,5.19,0,0,1-4.007,1.617A5.216,5.216,0,0,1,43.158,21.6a6.182,6.182,0,0,1-1.5-4.383Zm3.1.226a4.333,4.333,0,0,0,.623,2.53,2.24,2.24,0,0,0,3.545.011,4.741,4.741,0,0,0,.634-2.766,4.29,4.29,0,0,0-.634-2.514,2.061,2.061,0,0,0-1.783-.892,2.028,2.028,0,0,0-1.762.886A4.821,4.821,0,0,0,44.764,17.307Z" transform="translate(-5999.951 -8933.492)" fill="#fff"/>
      <path id="Trazado_636116" data-name="Trazado 636116" d="M21.529,19.777h-5.65L14.8,23H11.378L17.2,7.359h2.986L26.041,23H22.614Zm-4.78-2.61h3.91l-1.966-5.854ZM30.574,23H27.459V6.5h3.115ZM36.847,8.52v2.857h1.987v2.277H36.847v5.8a1.385,1.385,0,0,0,.247.924,1.241,1.241,0,0,0,.945.279,4.951,4.951,0,0,0,.913-.075v2.353a6.391,6.391,0,0,1-1.88.279q-3.266,0-3.33-3.3V13.654h-1.7V11.377h1.7V8.52Zm2.911,8.562A6.893,6.893,0,0,1,40.425,14,4.876,4.876,0,0,1,42.342,11.9a5.594,5.594,0,0,1,2.906-.741,5.293,5.293,0,0,1,3.84,1.439,5.777,5.777,0,0,1,1.66,3.91l.021.795A6.075,6.075,0,0,1,49.276,21.6a5.19,5.19,0,0,1-4.007,1.617A5.216,5.216,0,0,1,41.257,21.6a6.182,6.182,0,0,1-1.5-4.383Zm3.1.226a4.333,4.333,0,0,0,.623,2.53,2.24,2.24,0,0,0,3.545.011,4.741,4.741,0,0,0,.634-2.766,4.29,4.29,0,0,0-.634-2.514,2.061,2.061,0,0,0-1.783-.892,2.028,2.028,0,0,0-1.762.886A4.821,4.821,0,0,0,42.863,17.307Z" transform="translate(-6194.034 -9174.384)" fill="#12263f"/>
      <path id="Trazado_636111" data-name="Trazado 636111" d="M8.367,28H4.412V8.8H8.367Zm6.987-14.265.119,1.6a5.013,5.013,0,0,1,4.1-1.859,3.8,3.8,0,0,1,3.784,2.175,4.9,4.9,0,0,1,4.285-2.175A4.255,4.255,0,0,1,31.1,14.823,6.211,6.211,0,0,1,32.23,18.89V28H28.406V18.9a2.716,2.716,0,0,0-.475-1.773,2.1,2.1,0,0,0-1.674-.56A2.378,2.378,0,0,0,23.884,18.2L23.9,28h-3.81V18.917a2.683,2.683,0,0,0-.488-1.793,2.124,2.124,0,0,0-1.661-.554,2.469,2.469,0,0,0-2.347,1.345V28h-3.81V13.735ZM48,21a8.555,8.555,0,0,1-1.5,5.28,4.8,4.8,0,0,1-4.041,1.984,4.444,4.444,0,0,1-3.494-1.5v6.724h-3.81V13.735H38.69l.132,1.4a4.478,4.478,0,0,1,3.612-1.661,4.83,4.83,0,0,1,4.1,1.951A8.787,8.787,0,0,1,48,20.8Zm-3.81-.277a5.614,5.614,0,0,0-.705-3.072,2.3,2.3,0,0,0-2.05-1.081,2.5,2.5,0,0,0-2.465,1.371v5.84a2.537,2.537,0,0,0,2.492,1.411Q44.187,25.192,44.187,20.723ZM58.623,28a4.231,4.231,0,0,1-.382-1.279,4.61,4.61,0,0,1-3.6,1.542,5.065,5.065,0,0,1-3.474-1.213,3.9,3.9,0,0,1-1.378-3.059,4.031,4.031,0,0,1,1.681-3.48,8.294,8.294,0,0,1,4.858-1.226h1.753v-.817a2.351,2.351,0,0,0-.508-1.582,2,2,0,0,0-1.6-.593,2.27,2.27,0,0,0-1.51.461,1.568,1.568,0,0,0-.547,1.266h-3.81a3.827,3.827,0,0,1,.765-2.294,5.054,5.054,0,0,1,2.162-1.655,7.88,7.88,0,0,1,3.138-.6A6.225,6.225,0,0,1,60.357,14.8a4.635,4.635,0,0,1,1.549,3.724V24.7a6.82,6.82,0,0,0,.567,3.072V28Zm-3.151-2.65a3.281,3.281,0,0,0,1.556-.376,2.468,2.468,0,0,0,1.055-1.009V21.514H56.659q-2.861,0-3.045,1.978l-.013.224a1.525,1.525,0,0,0,.5,1.173A1.946,1.946,0,0,0,55.472,25.35Zm15.293-.158a2.5,2.5,0,0,0,1.714-.58,2.032,2.032,0,0,0,.686-1.542h3.573a4.887,4.887,0,0,1-.791,2.656A5.219,5.219,0,0,1,73.817,27.6a6.664,6.664,0,0,1-2.986.666,6.193,6.193,0,0,1-4.825-1.945,7.7,7.7,0,0,1-1.767-5.372V20.7a7.607,7.607,0,0,1,1.753-5.26A6.121,6.121,0,0,1,70.8,13.472,6,6,0,0,1,75.1,14.994a5.391,5.391,0,0,1,1.641,4.054H73.165a2.6,2.6,0,0,0-.686-1.8,2.554,2.554,0,0,0-3.751.277,5.609,5.609,0,0,0-.679,3.144v.4a5.68,5.68,0,0,0,.672,3.164A2.325,2.325,0,0,0,70.765,25.192ZM83.474,10.229v3.507h2.439V16.53H83.474v7.119a1.7,1.7,0,0,0,.3,1.134,1.523,1.523,0,0,0,1.16.343,6.076,6.076,0,0,0,1.121-.092v2.887a7.844,7.844,0,0,1-2.307.343q-4.008,0-4.087-4.047V16.53H77.581V13.735h2.083V10.229Zm3.573,10.507a8.46,8.46,0,0,1,.817-3.784,5.984,5.984,0,0,1,2.353-2.571,6.866,6.866,0,0,1,3.566-.91A6.5,6.5,0,0,1,98.5,15.238a7.09,7.09,0,0,1,2.037,4.8l.026.976a7.456,7.456,0,0,1-1.833,5.267,7.1,7.1,0,0,1-9.842.007,7.587,7.587,0,0,1-1.839-5.379Zm3.81.277a5.318,5.318,0,0,0,.765,3.1,2.75,2.75,0,0,0,4.351.013,5.819,5.819,0,0,0,.778-3.395,5.264,5.264,0,0,0-.778-3.085,2.53,2.53,0,0,0-2.188-1.094,2.488,2.488,0,0,0-2.162,1.088A5.917,5.917,0,0,0,90.857,21.013Z" transform="translate(-6117.542 -8869.56)" fill="#12263f"/>
      <path id="Trazado_636110" data-name="Trazado 636110" d="M17.492,21.237V28H13.537V8.8h7.488a8.664,8.664,0,0,1,3.8.791,5.829,5.829,0,0,1,2.525,2.248,6.268,6.268,0,0,1,.883,3.316,5.512,5.512,0,0,1-1.931,4.449,8.044,8.044,0,0,1-5.346,1.628Zm0-3.2h3.533a3.474,3.474,0,0,0,2.393-.738,2.685,2.685,0,0,0,.824-2.109,3.166,3.166,0,0,0-.831-2.281,3.1,3.1,0,0,0-2.294-.9H17.492Zm21.226-.725a10.351,10.351,0,0,0-1.371-.105,2.791,2.791,0,0,0-2.834,1.463V28H30.7V13.735h3.6l.105,1.7a3.53,3.53,0,0,1,3.177-1.964,3.992,3.992,0,0,1,1.187.171Zm.765,3.428a8.46,8.46,0,0,1,.817-3.784,5.984,5.984,0,0,1,2.353-2.571,6.866,6.866,0,0,1,3.566-.91,6.5,6.5,0,0,1,4.713,1.767,7.09,7.09,0,0,1,2.037,4.8l.026.976a7.456,7.456,0,0,1-1.833,5.267,6.37,6.37,0,0,1-4.917,1.984,6.4,6.4,0,0,1-4.924-1.978,7.587,7.587,0,0,1-1.839-5.379Zm3.81.277a5.318,5.318,0,0,0,.765,3.1,2.75,2.75,0,0,0,4.351.013,5.819,5.819,0,0,0,.778-3.395,5.264,5.264,0,0,0-.778-3.085,2.53,2.53,0,0,0-2.188-1.094,2.488,2.488,0,0,0-2.162,1.088A5.917,5.917,0,0,0,43.292,21.013ZM68.2,21a8.638,8.638,0,0,1-1.463,5.346,4.847,4.847,0,0,1-4.087,1.918,4.454,4.454,0,0,1-3.7-1.78L58.77,28H55.342V7.75h3.81v7.264a4.339,4.339,0,0,1,3.467-1.542,4.887,4.887,0,0,1,4.094,1.918,8.65,8.65,0,0,1,1.483,5.4Zm-3.81-.277a5.675,5.675,0,0,0-.686-3.157,2.318,2.318,0,0,0-2.043-1,2.513,2.513,0,0,0-2.5,1.49v5.629a2.547,2.547,0,0,0,2.531,1.5,2.352,2.352,0,0,0,2.426-1.819A9.385,9.385,0,0,0,64.386,20.723ZM78.809,28a4.231,4.231,0,0,1-.382-1.279,4.61,4.61,0,0,1-3.6,1.542,5.065,5.065,0,0,1-3.474-1.213,3.9,3.9,0,0,1-1.378-3.059,4.031,4.031,0,0,1,1.681-3.48,8.294,8.294,0,0,1,4.858-1.226h1.753v-.817a2.351,2.351,0,0,0-.508-1.582,2,2,0,0,0-1.6-.593,2.27,2.27,0,0,0-1.51.461A1.568,1.568,0,0,0,74.1,18.02h-3.81a3.827,3.827,0,0,1,.765-2.294,5.054,5.054,0,0,1,2.162-1.655,7.88,7.88,0,0,1,3.138-.6A6.225,6.225,0,0,1,80.542,14.8a4.635,4.635,0,0,1,1.549,3.724V24.7a6.82,6.82,0,0,0,.567,3.072V28Zm-3.151-2.65a3.281,3.281,0,0,0,1.556-.376,2.468,2.468,0,0,0,1.055-1.009V21.514H76.844q-2.861,0-3.045,1.978l-.013.224a1.525,1.525,0,0,0,.5,1.173A1.946,1.946,0,0,0,75.658,25.35ZM97.872,21a8.638,8.638,0,0,1-1.463,5.346,4.847,4.847,0,0,1-4.087,1.918,4.454,4.454,0,0,1-3.7-1.78L88.446,28H85.018V7.75h3.81v7.264A4.339,4.339,0,0,1,92.3,13.472a4.887,4.887,0,0,1,4.094,1.918,8.65,8.65,0,0,1,1.483,5.4Zm-3.81-.277a5.675,5.675,0,0,0-.686-3.157,2.318,2.318,0,0,0-2.043-1,2.513,2.513,0,0,0-2.5,1.49v5.629a2.547,2.547,0,0,0,2.531,1.5,2.352,2.352,0,0,0,2.426-1.819A9.385,9.385,0,0,0,94.062,20.723ZM104.24,28h-3.823V13.735h3.823Zm-4.047-17.956a1.876,1.876,0,0,1,.573-1.411,2.471,2.471,0,0,1,3.118,0,1.865,1.865,0,0,1,.58,1.411,1.871,1.871,0,0,1-.587,1.424,2.444,2.444,0,0,1-3.1,0A1.871,1.871,0,0,1,100.193,10.044ZM111.4,28h-3.823V7.75H111.4Zm7.159,0h-3.823V13.735h3.823ZM114.51,10.044a1.876,1.876,0,0,1,.573-1.411,2.471,2.471,0,0,1,3.118,0,1.865,1.865,0,0,1,.58,1.411,1.871,1.871,0,0,1-.587,1.424,2.444,2.444,0,0,1-3.1,0A1.871,1.871,0,0,1,114.51,10.044ZM121.1,20.762a8.6,8.6,0,0,1,1.5-5.313,4.855,4.855,0,0,1,4.094-1.978,4.369,4.369,0,0,1,3.441,1.556V7.75h3.823V28h-3.441l-.185-1.516a4.484,4.484,0,0,1-3.665,1.78,4.842,4.842,0,0,1-4.041-1.984A8.873,8.873,0,0,1,121.1,20.762Zm3.81.277a5.616,5.616,0,0,0,.7,3.072,2.277,2.277,0,0,0,2.03,1.068,2.55,2.55,0,0,0,2.492-1.49V18.06a2.513,2.513,0,0,0-2.465-1.49Q124.912,16.57,124.912,21.039ZM145.175,28a4.231,4.231,0,0,1-.382-1.279,4.61,4.61,0,0,1-3.6,1.542,5.065,5.065,0,0,1-3.474-1.213,3.9,3.9,0,0,1-1.378-3.059,4.031,4.031,0,0,1,1.681-3.48,8.294,8.294,0,0,1,4.858-1.226h1.753v-.817a2.351,2.351,0,0,0-.508-1.582,2,2,0,0,0-1.6-.593,2.27,2.27,0,0,0-1.51.461,1.568,1.568,0,0,0-.547,1.266h-3.81a3.827,3.827,0,0,1,.765-2.294,5.054,5.054,0,0,1,2.162-1.655,7.88,7.88,0,0,1,3.138-.6,6.225,6.225,0,0,1,4.186,1.325,4.635,4.635,0,0,1,1.549,3.724V24.7a6.82,6.82,0,0,0,.567,3.072V28Zm-3.151-2.65a3.281,3.281,0,0,0,1.556-.376,2.468,2.468,0,0,0,1.055-1.009V21.514h-1.424q-2.861,0-3.045,1.978l-.013.224a1.525,1.525,0,0,0,.5,1.173A1.946,1.946,0,0,0,142.024,25.35Zm8.767-4.588a8.6,8.6,0,0,1,1.5-5.313,4.855,4.855,0,0,1,4.094-1.978,4.369,4.369,0,0,1,3.441,1.556V7.75h3.823V28H160.2l-.185-1.516a4.484,4.484,0,0,1-3.665,1.78,4.842,4.842,0,0,1-4.041-1.984A8.873,8.873,0,0,1,150.791,20.762Zm3.81.277a5.616,5.616,0,0,0,.7,3.072,2.277,2.277,0,0,0,2.03,1.068,2.55,2.55,0,0,0,2.492-1.49V18.06a2.513,2.513,0,0,0-2.465-1.49Q154.6,16.57,154.6,21.039Z" transform="translate(-6500 -8944.909) rotate(-90)" fill="#12263f"/>
      <path id="Trazado_636109" data-name="Trazado 636109" d="M21.865,9.672l5.479,15.469L32.793,9.672h5.771V31H34.155V25.17l.439-10.063L28.838,31H25.82L20.078,15.121l.439,10.049V31H16.123V9.672ZM51.309,31a4.7,4.7,0,0,1-.425-1.421,5.122,5.122,0,0,1-4,1.714,5.627,5.627,0,0,1-3.86-1.348,4.334,4.334,0,0,1-1.531-3.4,4.479,4.479,0,0,1,1.868-3.867,9.216,9.216,0,0,1,5.4-1.362h1.948v-.908a2.612,2.612,0,0,0-.564-1.758,2.219,2.219,0,0,0-1.78-.659,2.522,2.522,0,0,0-1.677.513,1.742,1.742,0,0,0-.608,1.406H41.846a4.252,4.252,0,0,1,.85-2.549,5.616,5.616,0,0,1,2.4-1.838,8.755,8.755,0,0,1,3.486-.667,6.917,6.917,0,0,1,4.651,1.472,5.15,5.15,0,0,1,1.721,4.138v6.87a7.577,7.577,0,0,0,.63,3.413V31Zm-3.5-2.944a3.646,3.646,0,0,0,1.729-.417,2.742,2.742,0,0,0,1.172-1.121V23.793H49.126q-3.179,0-3.384,2.2l-.015.249a1.7,1.7,0,0,0,.557,1.3A2.162,2.162,0,0,0,47.808,28.056Zm15.469-16.8v3.9h2.71v3.105h-2.71v7.91a1.889,1.889,0,0,0,.337,1.26,1.692,1.692,0,0,0,1.289.381,6.751,6.751,0,0,0,1.245-.1v3.208a8.715,8.715,0,0,1-2.563.381q-4.453,0-4.541-4.5v-8.54H56.728V15.15h2.314v-3.9ZM77.251,19.12A11.5,11.5,0,0,0,75.727,19q-2.4,0-3.149,1.626V31H68.345V15.15h4l.117,1.89a3.923,3.923,0,0,1,3.53-2.183,4.436,4.436,0,0,1,1.318.19ZM83.755,31H79.507V15.15h4.248Zm-4.5-19.951a2.085,2.085,0,0,1,.637-1.567,2.746,2.746,0,0,1,3.464,0A2.073,2.073,0,0,1,84,11.049a2.078,2.078,0,0,1-.652,1.582,2.715,2.715,0,0,1-3.442,0A2.078,2.078,0,0,1,79.258,11.049ZM92.1,27.587h7.749V31H86.7V28.422l7.456-9.844H86.919V15.15h12.7v2.5Zm17.212-4.629a9.552,9.552,0,0,1,1.663-5.9,5.4,5.4,0,0,1,4.548-2.2,4.854,4.854,0,0,1,3.823,1.729V8.5H123.6V31h-3.823l-.205-1.685a4.982,4.982,0,0,1-4.072,1.978,5.38,5.38,0,0,1-4.49-2.2A9.859,9.859,0,0,1,109.316,22.958Zm4.233.308a6.239,6.239,0,0,0,.776,3.413,2.53,2.53,0,0,0,2.256,1.187,2.833,2.833,0,0,0,2.769-1.655V19.955a2.793,2.793,0,0,0-2.739-1.655Q113.55,18.3,113.55,23.266Zm20.625,8.027a7.781,7.781,0,0,1-5.676-2.139,7.6,7.6,0,0,1-2.19-5.7v-.41a9.575,9.575,0,0,1,.923-4.27,6.773,6.773,0,0,1,2.615-2.9,7.339,7.339,0,0,1,3.86-1.018,6.578,6.578,0,0,1,5.12,2.051,8.333,8.333,0,0,1,1.868,5.815v1.729H130.6a3.933,3.933,0,0,0,1.238,2.49,3.742,3.742,0,0,0,2.615.938,4.569,4.569,0,0,0,3.823-1.772l2.08,2.329a6.355,6.355,0,0,1-2.578,2.1A8.458,8.458,0,0,1,134.175,31.293Zm-.483-13.008a2.651,2.651,0,0,0-2.043.85,4.389,4.389,0,0,0-1,2.432h5.889v-.337a3.129,3.129,0,0,0-.762-2.175A2.736,2.736,0,0,0,133.691,18.285Zm25.781.835A11.5,11.5,0,0,0,157.949,19q-2.4,0-3.149,1.626V31h-4.233V15.15h4l.117,1.89a3.923,3.923,0,0,1,3.53-2.183,4.436,4.436,0,0,1,1.318.19Zm6.5,11.88h-4.248V15.15h4.248Zm-4.5-19.951a2.085,2.085,0,0,1,.637-1.567,2.746,2.746,0,0,1,3.464,0,2.073,2.073,0,0,1,.645,1.567,2.078,2.078,0,0,1-.652,1.582,2.715,2.715,0,0,1-3.442,0A2.078,2.078,0,0,1,161.479,11.049Zm15.278,20.244a7.781,7.781,0,0,1-5.676-2.139,7.6,7.6,0,0,1-2.19-5.7v-.41a9.575,9.575,0,0,1,.923-4.27,6.773,6.773,0,0,1,2.615-2.9,7.339,7.339,0,0,1,3.86-1.018,6.578,6.578,0,0,1,5.12,2.051,8.333,8.333,0,0,1,1.868,5.815v1.729H173.184a3.933,3.933,0,0,0,1.238,2.49,3.742,3.742,0,0,0,2.615.938,4.569,4.569,0,0,0,3.823-1.772l2.08,2.329a6.355,6.355,0,0,1-2.578,2.1A8.458,8.458,0,0,1,176.758,31.293Zm-.483-13.008a2.651,2.651,0,0,0-2.043.85,4.389,4.389,0,0,0-1,2.432h5.889v-.337a3.129,3.129,0,0,0-.762-2.175A2.736,2.736,0,0,0,176.274,18.285Zm17.988,8.335a1.364,1.364,0,0,0-.769-1.223,8.736,8.736,0,0,0-2.468-.8q-5.654-1.187-5.654-4.8a4.355,4.355,0,0,1,1.75-3.523,7.061,7.061,0,0,1,4.578-1.414,7.6,7.6,0,0,1,4.827,1.421,4.478,4.478,0,0,1,1.809,3.691H194.1a2.048,2.048,0,0,0-.586-1.5,2.48,2.48,0,0,0-1.831-.593,2.534,2.534,0,0,0-1.655.483,1.526,1.526,0,0,0-.586,1.23,1.3,1.3,0,0,0,.667,1.135,6.857,6.857,0,0,0,2.249.747,18.366,18.366,0,0,1,2.666.71q3.354,1.23,3.354,4.263a4.134,4.134,0,0,1-1.86,3.508,8.025,8.025,0,0,1-4.8,1.34,8.382,8.382,0,0,1-3.538-.71,5.936,5.936,0,0,1-2.424-1.948,4.527,4.527,0,0,1-.879-2.673h4.014a2.21,2.21,0,0,0,.835,1.729,3.312,3.312,0,0,0,2.08.6,3.065,3.065,0,0,0,1.838-.461A1.436,1.436,0,0,0,194.263,26.62Zm6.226-3.662a9.289,9.289,0,0,1,1.736-5.874,5.624,5.624,0,0,1,4.68-2.227,4.933,4.933,0,0,1,4.058,1.787l.176-1.494h3.838V30.473a6.774,6.774,0,0,1-.945,3.618,6.068,6.068,0,0,1-2.659,2.344,9.346,9.346,0,0,1-4.014.806,8.691,8.691,0,0,1-3.4-.7,6.032,6.032,0,0,1-2.5-1.794l1.875-2.578a4.959,4.959,0,0,0,3.838,1.772,3.63,3.63,0,0,0,2.622-.9,3.379,3.379,0,0,0,.938-2.556v-.85a4.9,4.9,0,0,1-3.853,1.655,5.61,5.61,0,0,1-4.622-2.234,9.286,9.286,0,0,1-1.765-5.925Zm4.233.308a5.768,5.768,0,0,0,.864,3.376,2.751,2.751,0,0,0,2.373,1.223,2.941,2.941,0,0,0,2.769-1.45V19.75a2.934,2.934,0,0,0-2.739-1.45,2.768,2.768,0,0,0-2.4,1.245A6.5,6.5,0,0,0,204.722,23.266Zm12.847-.337a9.4,9.4,0,0,1,.908-4.2,6.649,6.649,0,0,1,2.615-2.856,7.628,7.628,0,0,1,3.962-1.011,7.217,7.217,0,0,1,5.237,1.963,7.878,7.878,0,0,1,2.263,5.332l.029,1.084a8.284,8.284,0,0,1-2.036,5.852,7.892,7.892,0,0,1-10.935.007,8.43,8.43,0,0,1-2.043-5.977Zm4.233.308a5.909,5.909,0,0,0,.85,3.45,3.055,3.055,0,0,0,4.834.015,6.465,6.465,0,0,0,.864-3.772,5.849,5.849,0,0,0-.864-3.428,2.811,2.811,0,0,0-2.432-1.216,2.765,2.765,0,0,0-2.4,1.208A6.574,6.574,0,0,0,221.8,23.236Zm21.973,3.384a1.364,1.364,0,0,0-.769-1.223,8.736,8.736,0,0,0-2.468-.8q-5.654-1.187-5.654-4.8a4.355,4.355,0,0,1,1.75-3.523,7.061,7.061,0,0,1,4.578-1.414,7.6,7.6,0,0,1,4.827,1.421,4.478,4.478,0,0,1,1.809,3.691h-4.233a2.048,2.048,0,0,0-.586-1.5,2.48,2.48,0,0,0-1.831-.593,2.534,2.534,0,0,0-1.655.483,1.526,1.526,0,0,0-.586,1.23,1.3,1.3,0,0,0,.667,1.135,6.857,6.857,0,0,0,2.249.747,18.366,18.366,0,0,1,2.666.71q3.354,1.23,3.354,4.263a4.134,4.134,0,0,1-1.86,3.508,8.025,8.025,0,0,1-4.8,1.34,8.382,8.382,0,0,1-3.538-.71,5.936,5.936,0,0,1-2.424-1.948,4.527,4.527,0,0,1-.879-2.673H238.4a2.21,2.21,0,0,0,.835,1.729,3.312,3.312,0,0,0,2.08.6,3.065,3.065,0,0,0,1.838-.461A1.436,1.436,0,0,0,243.774,26.62Z" transform="translate(-6194.034 -9268)" fill="#12263f"/>
      <path id="Trazado_636121" data-name="Trazado 636121" d="M21.529,19.777h-5.65L14.8,23H11.378L17.2,7.359h2.986L26.041,23H22.614Zm-4.78-2.61h3.91l-1.966-5.854ZM30.574,23H27.459V6.5h3.115ZM36.847,8.52v2.857h1.987v2.277H36.847v5.8a1.385,1.385,0,0,0,.247.924,1.241,1.241,0,0,0,.945.279,4.951,4.951,0,0,0,.913-.075v2.353a6.391,6.391,0,0,1-1.88.279q-3.266,0-3.33-3.3V13.654h-1.7V11.377h1.7V8.52Zm2.911,8.562A6.893,6.893,0,0,1,40.425,14,4.876,4.876,0,0,1,42.342,11.9a5.594,5.594,0,0,1,2.906-.741,5.293,5.293,0,0,1,3.84,1.439,5.777,5.777,0,0,1,1.66,3.91l.021.795A6.075,6.075,0,0,1,49.276,21.6a5.19,5.19,0,0,1-4.007,1.617A5.216,5.216,0,0,1,41.257,21.6a6.182,6.182,0,0,1-1.5-4.383Zm3.1.226a4.333,4.333,0,0,0,.623,2.53,2.24,2.24,0,0,0,3.545.011,4.741,4.741,0,0,0,.634-2.766,4.29,4.29,0,0,0-.634-2.514,2.061,2.061,0,0,0-1.783-.892,2.028,2.028,0,0,0-1.762.886A4.821,4.821,0,0,0,42.863,17.307Z" transform="translate(-5998.81 -9095.608)" fill="#12263f"/>
      <path id="Trazado_636120" data-name="Trazado 636120" d="M28.242,17.79a5.535,5.535,0,0,1-1.864,3.975,6.546,6.546,0,0,1-4.431,1.45,5.886,5.886,0,0,1-4.732-2.025,8.3,8.3,0,0,1-1.724-5.559v-.956a9.376,9.376,0,0,1,.795-3.975,5.957,5.957,0,0,1,2.272-2.637,6.364,6.364,0,0,1,3.432-.918,6.376,6.376,0,0,1,4.361,1.45,5.948,5.948,0,0,1,1.912,4.071H25.041a3.266,3.266,0,0,0-.843-2.2,3.123,3.123,0,0,0-2.208-.682,2.738,2.738,0,0,0-2.412,1.155,6.472,6.472,0,0,0-.822,3.583v1.182a6.927,6.927,0,0,0,.768,3.706,2.687,2.687,0,0,0,2.422,1.171,3.182,3.182,0,0,0,2.229-.682,3.081,3.081,0,0,0,.843-2.111Zm8.443-3.5a8.434,8.434,0,0,0-1.117-.086,2.274,2.274,0,0,0-2.31,1.192V23h-3.1V11.377h2.933l.086,1.386a2.877,2.877,0,0,1,2.589-1.6,3.253,3.253,0,0,1,.967.14ZM41.53,23h-3.1V11.377h3.1ZM40.617,6.661H44l-2.976,3.33H38.5Zm7.3,1.858v2.857h1.987v2.277H47.922v5.8a1.385,1.385,0,0,0,.247.924,1.241,1.241,0,0,0,.945.279,4.951,4.951,0,0,0,.913-.075v2.353a6.391,6.391,0,0,1-1.88.279q-3.266,0-3.33-3.3V13.654h-1.7V11.377h1.7V8.52ZM54.915,23H51.8V11.377h3.115Zm-3.3-14.631a1.529,1.529,0,0,1,.467-1.149,2.014,2.014,0,0,1,2.541,0A1.52,1.52,0,0,1,55.1,8.369a1.524,1.524,0,0,1-.478,1.16,1.991,1.991,0,0,1-2.524,0A1.524,1.524,0,0,1,51.617,8.369ZM62.305,20.712a2.036,2.036,0,0,0,1.4-.473,1.656,1.656,0,0,0,.559-1.257h2.911a3.982,3.982,0,0,1-.645,2.165,4.253,4.253,0,0,1-1.735,1.525,5.43,5.43,0,0,1-2.433.542,5.046,5.046,0,0,1-3.932-1.584,6.27,6.27,0,0,1-1.439-4.377v-.2a6.2,6.2,0,0,1,1.429-4.286,4.987,4.987,0,0,1,3.921-1.6,4.889,4.889,0,0,1,3.5,1.241,4.393,4.393,0,0,1,1.337,3.3H64.26A2.116,2.116,0,0,0,63.7,14.24a2.081,2.081,0,0,0-3.056.226,4.57,4.57,0,0,0-.553,2.562v.322a4.628,4.628,0,0,0,.548,2.578A1.894,1.894,0,0,0,62.305,20.712Zm6.155-3.631A6.893,6.893,0,0,1,69.127,14,4.876,4.876,0,0,1,71.044,11.9a5.594,5.594,0,0,1,2.906-.741A5.293,5.293,0,0,1,77.79,12.6a5.777,5.777,0,0,1,1.66,3.91l.021.795A6.075,6.075,0,0,1,77.978,21.6a5.787,5.787,0,0,1-8.019.005,6.182,6.182,0,0,1-1.5-4.383Zm3.1.226a4.333,4.333,0,0,0,.623,2.53,2.24,2.24,0,0,0,3.545.011,4.741,4.741,0,0,0,.634-2.766,4.29,4.29,0,0,0-.634-2.514,2.061,2.061,0,0,0-1.783-.892,2.028,2.028,0,0,0-1.762.886A4.821,4.821,0,0,0,71.565,17.307Z" transform="translate(-6014.793 -9175.525)" fill="#fff"/>
      <path id="Trazado_636124" data-name="Trazado 636124" d="M28.242,17.79a5.535,5.535,0,0,1-1.864,3.975,6.546,6.546,0,0,1-4.431,1.45,5.886,5.886,0,0,1-4.732-2.025,8.3,8.3,0,0,1-1.724-5.559v-.956a9.376,9.376,0,0,1,.795-3.975,5.957,5.957,0,0,1,2.272-2.637,6.364,6.364,0,0,1,3.432-.918,6.376,6.376,0,0,1,4.361,1.45,5.948,5.948,0,0,1,1.912,4.071H25.041a3.266,3.266,0,0,0-.843-2.2,3.123,3.123,0,0,0-2.208-.682,2.738,2.738,0,0,0-2.412,1.155,6.472,6.472,0,0,0-.822,3.583v1.182a6.927,6.927,0,0,0,.768,3.706,2.687,2.687,0,0,0,2.422,1.171,3.182,3.182,0,0,0,2.229-.682,3.081,3.081,0,0,0,.843-2.111Zm8.443-3.5a8.434,8.434,0,0,0-1.117-.086,2.274,2.274,0,0,0-2.31,1.192V23h-3.1V11.377h2.933l.086,1.386a2.877,2.877,0,0,1,2.589-1.6,3.253,3.253,0,0,1,.967.14ZM41.53,23h-3.1V11.377h3.1ZM40.617,6.661H44l-2.976,3.33H38.5Zm7.3,1.858v2.857h1.987v2.277H47.922v5.8a1.385,1.385,0,0,0,.247.924,1.241,1.241,0,0,0,.945.279,4.951,4.951,0,0,0,.913-.075v2.353a6.391,6.391,0,0,1-1.88.279q-3.266,0-3.33-3.3V13.654h-1.7V11.377h1.7V8.52ZM54.915,23H51.8V11.377h3.115Zm-3.3-14.631a1.529,1.529,0,0,1,.467-1.149,2.014,2.014,0,0,1,2.541,0A1.52,1.52,0,0,1,55.1,8.369a1.524,1.524,0,0,1-.478,1.16,1.991,1.991,0,0,1-2.524,0A1.524,1.524,0,0,1,51.617,8.369ZM62.305,20.712a2.036,2.036,0,0,0,1.4-.473,1.656,1.656,0,0,0,.559-1.257h2.911a3.982,3.982,0,0,1-.645,2.165,4.253,4.253,0,0,1-1.735,1.525,5.43,5.43,0,0,1-2.433.542,5.046,5.046,0,0,1-3.932-1.584,6.27,6.27,0,0,1-1.439-4.377v-.2a6.2,6.2,0,0,1,1.429-4.286,4.987,4.987,0,0,1,3.921-1.6,4.889,4.889,0,0,1,3.5,1.241,4.393,4.393,0,0,1,1.337,3.3H64.26A2.116,2.116,0,0,0,63.7,14.24a2.081,2.081,0,0,0-3.056.226,4.57,4.57,0,0,0-.553,2.562v.322a4.628,4.628,0,0,0,.548,2.578A1.894,1.894,0,0,0,62.305,20.712Zm6.155-3.631A6.893,6.893,0,0,1,69.127,14,4.876,4.876,0,0,1,71.044,11.9a5.594,5.594,0,0,1,2.906-.741A5.293,5.293,0,0,1,77.79,12.6a5.777,5.777,0,0,1,1.66,3.91l.021.795A6.075,6.075,0,0,1,77.978,21.6a5.787,5.787,0,0,1-8.019.005,6.182,6.182,0,0,1-1.5-4.383Zm3.1.226a4.333,4.333,0,0,0,.623,2.53,2.24,2.24,0,0,0,3.545.011,4.741,4.741,0,0,0,.634-2.766,4.29,4.29,0,0,0-.634-2.514,2.061,2.061,0,0,0-1.783-.892,2.028,2.028,0,0,0-1.762.886A4.821,4.821,0,0,0,71.565,17.307Z" transform="translate(-5820.71 -9175.525)" fill="#fff"/>
      <path id="Trazado_636125" data-name="Trazado 636125" d="M28.242,17.79a5.535,5.535,0,0,1-1.864,3.975,6.546,6.546,0,0,1-4.431,1.45,5.886,5.886,0,0,1-4.732-2.025,8.3,8.3,0,0,1-1.724-5.559v-.956a9.376,9.376,0,0,1,.795-3.975,5.957,5.957,0,0,1,2.272-2.637,6.364,6.364,0,0,1,3.432-.918,6.376,6.376,0,0,1,4.361,1.45,5.948,5.948,0,0,1,1.912,4.071H25.041a3.266,3.266,0,0,0-.843-2.2,3.123,3.123,0,0,0-2.208-.682,2.738,2.738,0,0,0-2.412,1.155,6.472,6.472,0,0,0-.822,3.583v1.182a6.927,6.927,0,0,0,.768,3.706,2.687,2.687,0,0,0,2.422,1.171,3.182,3.182,0,0,0,2.229-.682,3.081,3.081,0,0,0,.843-2.111Zm8.443-3.5a8.434,8.434,0,0,0-1.117-.086,2.274,2.274,0,0,0-2.31,1.192V23h-3.1V11.377h2.933l.086,1.386a2.877,2.877,0,0,1,2.589-1.6,3.253,3.253,0,0,1,.967.14ZM41.53,23h-3.1V11.377h3.1ZM40.617,6.661H44l-2.976,3.33H38.5Zm7.3,1.858v2.857h1.987v2.277H47.922v5.8a1.385,1.385,0,0,0,.247.924,1.241,1.241,0,0,0,.945.279,4.951,4.951,0,0,0,.913-.075v2.353a6.391,6.391,0,0,1-1.88.279q-3.266,0-3.33-3.3V13.654h-1.7V11.377h1.7V8.52ZM54.915,23H51.8V11.377h3.115Zm-3.3-14.631a1.529,1.529,0,0,1,.467-1.149,2.014,2.014,0,0,1,2.541,0A1.52,1.52,0,0,1,55.1,8.369a1.524,1.524,0,0,1-.478,1.16,1.991,1.991,0,0,1-2.524,0A1.524,1.524,0,0,1,51.617,8.369ZM62.305,20.712a2.036,2.036,0,0,0,1.4-.473,1.656,1.656,0,0,0,.559-1.257h2.911a3.982,3.982,0,0,1-.645,2.165,4.253,4.253,0,0,1-1.735,1.525,5.43,5.43,0,0,1-2.433.542,5.046,5.046,0,0,1-3.932-1.584,6.27,6.27,0,0,1-1.439-4.377v-.2a6.2,6.2,0,0,1,1.429-4.286,4.987,4.987,0,0,1,3.921-1.6,4.889,4.889,0,0,1,3.5,1.241,4.393,4.393,0,0,1,1.337,3.3H64.26A2.116,2.116,0,0,0,63.7,14.24a2.081,2.081,0,0,0-3.056.226,4.57,4.57,0,0,0-.553,2.562v.322a4.628,4.628,0,0,0,.548,2.578A1.894,1.894,0,0,0,62.305,20.712Zm6.155-3.631A6.893,6.893,0,0,1,69.127,14,4.876,4.876,0,0,1,71.044,11.9a5.594,5.594,0,0,1,2.906-.741A5.293,5.293,0,0,1,77.79,12.6a5.777,5.777,0,0,1,1.66,3.91l.021.795A6.075,6.075,0,0,1,77.978,21.6a5.787,5.787,0,0,1-8.019.005,6.182,6.182,0,0,1-1.5-4.383Zm3.1.226a4.333,4.333,0,0,0,.623,2.53,2.24,2.24,0,0,0,3.545.011,4.741,4.741,0,0,0,.634-2.766,4.29,4.29,0,0,0-.634-2.514,2.061,2.061,0,0,0-1.783-.892,2.028,2.028,0,0,0-1.762.886A4.821,4.821,0,0,0,71.565,17.307Z" transform="translate(-5820.71 -9095.608)" fill="#fff"/>
      <path id="Trazado_636126" data-name="Trazado 636126" d="M21.529,19.777h-5.65L14.8,23H11.378L17.2,7.359h2.986L26.041,23H22.614Zm-4.78-2.61h3.91l-1.966-5.854ZM30.574,23H27.459V6.5h3.115ZM36.847,8.52v2.857h1.987v2.277H36.847v5.8a1.385,1.385,0,0,0,.247.924,1.241,1.241,0,0,0,.945.279,4.951,4.951,0,0,0,.913-.075v2.353a6.391,6.391,0,0,1-1.88.279q-3.266,0-3.33-3.3V13.654h-1.7V11.377h1.7V8.52Zm2.911,8.562A6.893,6.893,0,0,1,40.425,14,4.876,4.876,0,0,1,42.342,11.9a5.594,5.594,0,0,1,2.906-.741,5.293,5.293,0,0,1,3.84,1.439,5.777,5.777,0,0,1,1.66,3.91l.021.795A6.075,6.075,0,0,1,49.276,21.6a5.19,5.19,0,0,1-4.007,1.617A5.216,5.216,0,0,1,41.257,21.6a6.182,6.182,0,0,1-1.5-4.383Zm3.1.226a4.333,4.333,0,0,0,.623,2.53,2.24,2.24,0,0,0,3.545.011,4.741,4.741,0,0,0,.634-2.766,4.29,4.29,0,0,0-.634-2.514,2.061,2.061,0,0,0-1.783-.892,2.028,2.028,0,0,0-1.762.886A4.821,4.821,0,0,0,42.863,17.307Z" transform="translate(-5804.727 -9014.551)" fill="#12263f"/>
      <path id="Trazado_636113" data-name="Trazado 636113" d="M10.8,23V7.359h5.479a7.194,7.194,0,0,1,4.318,1.09,3.728,3.728,0,0,1,1.472,3.2,3.534,3.534,0,0,1-.591,2.025,3.413,3.413,0,0,1-1.644,1.284,3.3,3.3,0,0,1,1.9,1.214,3.589,3.589,0,0,1,.693,2.234,4.128,4.128,0,0,1-1.439,3.416A6.48,6.48,0,0,1,16.878,23Zm3.223-6.811v4.222h2.761a2.664,2.664,0,0,0,1.778-.542,1.86,1.86,0,0,0,.639-1.5,1.964,1.964,0,0,0-2.224-2.181Zm0-2.277h2.385q2.438-.043,2.438-1.944a1.8,1.8,0,0,0-.618-1.531,3.249,3.249,0,0,0-1.95-.467H14.02ZM31.369,23a3.448,3.448,0,0,1-.312-1.042,3.756,3.756,0,0,1-2.933,1.257,4.127,4.127,0,0,1-2.831-.988,3.178,3.178,0,0,1-1.123-2.492,3.285,3.285,0,0,1,1.37-2.836,6.758,6.758,0,0,1,3.958-1h1.429v-.666a1.915,1.915,0,0,0-.414-1.289,1.627,1.627,0,0,0-1.305-.483,1.85,1.85,0,0,0-1.23.376,1.277,1.277,0,0,0-.446,1.031h-3.1A3.118,3.118,0,0,1,25.052,13a4.118,4.118,0,0,1,1.762-1.348,6.42,6.42,0,0,1,2.557-.489,5.073,5.073,0,0,1,3.411,1.08,3.777,3.777,0,0,1,1.262,3.035v5.038a5.557,5.557,0,0,0,.462,2.5V23ZM28.8,20.841a2.674,2.674,0,0,0,1.268-.306,2.011,2.011,0,0,0,.859-.822v-2h-1.16q-2.331,0-2.481,1.611l-.011.183a1.243,1.243,0,0,0,.408.956A1.586,1.586,0,0,0,28.8,20.841Zm10.914-9.464V23.634A4.158,4.158,0,0,1,38.7,26.625a3.879,3.879,0,0,1-2.943,1.069,6.312,6.312,0,0,1-1.536-.183v-2.46a5.827,5.827,0,0,0,.978.1q1.407,0,1.407-1.493V11.377ZM36.353,8.369a1.529,1.529,0,0,1,.467-1.149,2.021,2.021,0,0,1,2.546,0,1.529,1.529,0,0,1,.467,1.149,1.524,1.524,0,0,1-.478,1.16,1.991,1.991,0,0,1-2.524,0A1.524,1.524,0,0,1,36.353,8.369Zm5.307,8.712A6.893,6.893,0,0,1,42.326,14,4.876,4.876,0,0,1,44.243,11.9a5.594,5.594,0,0,1,2.906-.741A5.293,5.293,0,0,1,50.99,12.6a5.777,5.777,0,0,1,1.66,3.91l.021.795A6.075,6.075,0,0,1,51.177,21.6a5.19,5.19,0,0,1-4.007,1.617A5.216,5.216,0,0,1,43.158,21.6a6.182,6.182,0,0,1-1.5-4.383Zm3.1.226a4.333,4.333,0,0,0,.623,2.53,2.24,2.24,0,0,0,3.545.011,4.741,4.741,0,0,0,.634-2.766,4.29,4.29,0,0,0-.634-2.514,2.061,2.061,0,0,0-1.783-.892,2.028,2.028,0,0,0-1.762.886A4.821,4.821,0,0,0,44.764,17.307Z" transform="translate(-6386.976 -9093.325)" fill="#fff"/>
      <path id="Trazado_636114" data-name="Trazado 636114" d="M10.8,23V7.359h5.479a7.194,7.194,0,0,1,4.318,1.09,3.728,3.728,0,0,1,1.472,3.2,3.534,3.534,0,0,1-.591,2.025,3.413,3.413,0,0,1-1.644,1.284,3.3,3.3,0,0,1,1.9,1.214,3.589,3.589,0,0,1,.693,2.234,4.128,4.128,0,0,1-1.439,3.416A6.48,6.48,0,0,1,16.878,23Zm3.223-6.811v4.222h2.761a2.664,2.664,0,0,0,1.778-.542,1.86,1.86,0,0,0,.639-1.5,1.964,1.964,0,0,0-2.224-2.181Zm0-2.277h2.385q2.438-.043,2.438-1.944a1.8,1.8,0,0,0-.618-1.531,3.249,3.249,0,0,0-1.95-.467H14.02ZM31.369,23a3.448,3.448,0,0,1-.312-1.042,3.756,3.756,0,0,1-2.933,1.257,4.127,4.127,0,0,1-2.831-.988,3.178,3.178,0,0,1-1.123-2.492,3.285,3.285,0,0,1,1.37-2.836,6.758,6.758,0,0,1,3.958-1h1.429v-.666a1.915,1.915,0,0,0-.414-1.289,1.627,1.627,0,0,0-1.305-.483,1.85,1.85,0,0,0-1.23.376,1.277,1.277,0,0,0-.446,1.031h-3.1A3.118,3.118,0,0,1,25.052,13a4.118,4.118,0,0,1,1.762-1.348,6.42,6.42,0,0,1,2.557-.489,5.073,5.073,0,0,1,3.411,1.08,3.777,3.777,0,0,1,1.262,3.035v5.038a5.557,5.557,0,0,0,.462,2.5V23ZM28.8,20.841a2.674,2.674,0,0,0,1.268-.306,2.011,2.011,0,0,0,.859-.822v-2h-1.16q-2.331,0-2.481,1.611l-.011.183a1.243,1.243,0,0,0,.408.956A1.586,1.586,0,0,0,28.8,20.841Zm10.914-9.464V23.634A4.158,4.158,0,0,1,38.7,26.625a3.879,3.879,0,0,1-2.943,1.069,6.312,6.312,0,0,1-1.536-.183v-2.46a5.827,5.827,0,0,0,.978.1q1.407,0,1.407-1.493V11.377ZM36.353,8.369a1.529,1.529,0,0,1,.467-1.149,2.021,2.021,0,0,1,2.546,0,1.529,1.529,0,0,1,.467,1.149,1.524,1.524,0,0,1-.478,1.16,1.991,1.991,0,0,1-2.524,0A1.524,1.524,0,0,1,36.353,8.369Zm5.307,8.712A6.893,6.893,0,0,1,42.326,14,4.876,4.876,0,0,1,44.243,11.9a5.594,5.594,0,0,1,2.906-.741A5.293,5.293,0,0,1,50.99,12.6a5.777,5.777,0,0,1,1.66,3.91l.021.795A6.075,6.075,0,0,1,51.177,21.6a5.19,5.19,0,0,1-4.007,1.617A5.216,5.216,0,0,1,43.158,21.6a6.182,6.182,0,0,1-1.5-4.383Zm3.1.226a4.333,4.333,0,0,0,.623,2.53,2.24,2.24,0,0,0,3.545.011,4.741,4.741,0,0,0,.634-2.766,4.29,4.29,0,0,0-.634-2.514,2.061,2.061,0,0,0-1.783-.892,2.028,2.028,0,0,0-1.762.886A4.821,4.821,0,0,0,44.764,17.307Z" transform="translate(-6386.976 -9014.551)" fill="#fff"/>
      <path id="Trazado_636115" data-name="Trazado 636115" d="M10.8,23V7.359h5.479a7.194,7.194,0,0,1,4.318,1.09,3.728,3.728,0,0,1,1.472,3.2,3.534,3.534,0,0,1-.591,2.025,3.413,3.413,0,0,1-1.644,1.284,3.3,3.3,0,0,1,1.9,1.214,3.589,3.589,0,0,1,.693,2.234,4.128,4.128,0,0,1-1.439,3.416A6.48,6.48,0,0,1,16.878,23Zm3.223-6.811v4.222h2.761a2.664,2.664,0,0,0,1.778-.542,1.86,1.86,0,0,0,.639-1.5,1.964,1.964,0,0,0-2.224-2.181Zm0-2.277h2.385q2.438-.043,2.438-1.944a1.8,1.8,0,0,0-.618-1.531,3.249,3.249,0,0,0-1.95-.467H14.02ZM31.369,23a3.448,3.448,0,0,1-.312-1.042,3.756,3.756,0,0,1-2.933,1.257,4.127,4.127,0,0,1-2.831-.988,3.178,3.178,0,0,1-1.123-2.492,3.285,3.285,0,0,1,1.37-2.836,6.758,6.758,0,0,1,3.958-1h1.429v-.666a1.915,1.915,0,0,0-.414-1.289,1.627,1.627,0,0,0-1.305-.483,1.85,1.85,0,0,0-1.23.376,1.277,1.277,0,0,0-.446,1.031h-3.1A3.118,3.118,0,0,1,25.052,13a4.118,4.118,0,0,1,1.762-1.348,6.42,6.42,0,0,1,2.557-.489,5.073,5.073,0,0,1,3.411,1.08,3.777,3.777,0,0,1,1.262,3.035v5.038a5.557,5.557,0,0,0,.462,2.5V23ZM28.8,20.841a2.674,2.674,0,0,0,1.268-.306,2.011,2.011,0,0,0,.859-.822v-2h-1.16q-2.331,0-2.481,1.611l-.011.183a1.243,1.243,0,0,0,.408.956A1.586,1.586,0,0,0,28.8,20.841Zm10.914-9.464V23.634A4.158,4.158,0,0,1,38.7,26.625a3.879,3.879,0,0,1-2.943,1.069,6.312,6.312,0,0,1-1.536-.183v-2.46a5.827,5.827,0,0,0,.978.1q1.407,0,1.407-1.493V11.377ZM36.353,8.369a1.529,1.529,0,0,1,.467-1.149,2.021,2.021,0,0,1,2.546,0,1.529,1.529,0,0,1,.467,1.149,1.524,1.524,0,0,1-.478,1.16,1.991,1.991,0,0,1-2.524,0A1.524,1.524,0,0,1,36.353,8.369Zm5.307,8.712A6.893,6.893,0,0,1,42.326,14,4.876,4.876,0,0,1,44.243,11.9a5.594,5.594,0,0,1,2.906-.741A5.293,5.293,0,0,1,50.99,12.6a5.777,5.777,0,0,1,1.66,3.91l.021.795A6.075,6.075,0,0,1,51.177,21.6a5.19,5.19,0,0,1-4.007,1.617A5.216,5.216,0,0,1,43.158,21.6a6.182,6.182,0,0,1-1.5-4.383Zm3.1.226a4.333,4.333,0,0,0,.623,2.53,2.24,2.24,0,0,0,3.545.011,4.741,4.741,0,0,0,.634-2.766,4.29,4.29,0,0,0-.634-2.514,2.061,2.061,0,0,0-1.783-.892,2.028,2.028,0,0,0-1.762.886A4.821,4.821,0,0,0,44.764,17.307Z" transform="translate(-6386.976 -8935.776)" fill="#fff"/>
      <path id="Trazado_636119" data-name="Trazado 636119" d="M10.8,23V7.359h5.479a7.194,7.194,0,0,1,4.318,1.09,3.728,3.728,0,0,1,1.472,3.2,3.534,3.534,0,0,1-.591,2.025,3.413,3.413,0,0,1-1.644,1.284,3.3,3.3,0,0,1,1.9,1.214,3.589,3.589,0,0,1,.693,2.234,4.128,4.128,0,0,1-1.439,3.416A6.48,6.48,0,0,1,16.878,23Zm3.223-6.811v4.222h2.761a2.664,2.664,0,0,0,1.778-.542,1.86,1.86,0,0,0,.639-1.5,1.964,1.964,0,0,0-2.224-2.181Zm0-2.277h2.385q2.438-.043,2.438-1.944a1.8,1.8,0,0,0-.618-1.531,3.249,3.249,0,0,0-1.95-.467H14.02ZM31.369,23a3.448,3.448,0,0,1-.312-1.042,3.756,3.756,0,0,1-2.933,1.257,4.127,4.127,0,0,1-2.831-.988,3.178,3.178,0,0,1-1.123-2.492,3.285,3.285,0,0,1,1.37-2.836,6.758,6.758,0,0,1,3.958-1h1.429v-.666a1.915,1.915,0,0,0-.414-1.289,1.627,1.627,0,0,0-1.305-.483,1.85,1.85,0,0,0-1.23.376,1.277,1.277,0,0,0-.446,1.031h-3.1A3.118,3.118,0,0,1,25.052,13a4.118,4.118,0,0,1,1.762-1.348,6.42,6.42,0,0,1,2.557-.489,5.073,5.073,0,0,1,3.411,1.08,3.777,3.777,0,0,1,1.262,3.035v5.038a5.557,5.557,0,0,0,.462,2.5V23ZM28.8,20.841a2.674,2.674,0,0,0,1.268-.306,2.011,2.011,0,0,0,.859-.822v-2h-1.16q-2.331,0-2.481,1.611l-.011.183a1.243,1.243,0,0,0,.408.956A1.586,1.586,0,0,0,28.8,20.841Zm10.914-9.464V23.634A4.158,4.158,0,0,1,38.7,26.625a3.879,3.879,0,0,1-2.943,1.069,6.312,6.312,0,0,1-1.536-.183v-2.46a5.827,5.827,0,0,0,.978.1q1.407,0,1.407-1.493V11.377ZM36.353,8.369a1.529,1.529,0,0,1,.467-1.149,2.021,2.021,0,0,1,2.546,0,1.529,1.529,0,0,1,.467,1.149,1.524,1.524,0,0,1-.478,1.16,1.991,1.991,0,0,1-2.524,0A1.524,1.524,0,0,1,36.353,8.369Zm5.307,8.712A6.893,6.893,0,0,1,42.326,14,4.876,4.876,0,0,1,44.243,11.9a5.594,5.594,0,0,1,2.906-.741A5.293,5.293,0,0,1,50.99,12.6a5.777,5.777,0,0,1,1.66,3.91l.021.795A6.075,6.075,0,0,1,51.177,21.6a5.19,5.19,0,0,1-4.007,1.617A5.216,5.216,0,0,1,43.158,21.6a6.182,6.182,0,0,1-1.5-4.383Zm3.1.226a4.333,4.333,0,0,0,.623,2.53,2.24,2.24,0,0,0,3.545.011,4.741,4.741,0,0,0,.634-2.766,4.29,4.29,0,0,0-.634-2.514,2.061,2.061,0,0,0-1.783-.892,2.028,2.028,0,0,0-1.762.886A4.821,4.821,0,0,0,44.764,17.307Z" transform="translate(-6194.034 -8935.776)" fill="#fff"/>
      <path id="Trazado_636118" data-name="Trazado 636118" d="M10.8,23V7.359h5.479a7.194,7.194,0,0,1,4.318,1.09,3.728,3.728,0,0,1,1.472,3.2,3.534,3.534,0,0,1-.591,2.025,3.413,3.413,0,0,1-1.644,1.284,3.3,3.3,0,0,1,1.9,1.214,3.589,3.589,0,0,1,.693,2.234,4.128,4.128,0,0,1-1.439,3.416A6.48,6.48,0,0,1,16.878,23Zm3.223-6.811v4.222h2.761a2.664,2.664,0,0,0,1.778-.542,1.86,1.86,0,0,0,.639-1.5,1.964,1.964,0,0,0-2.224-2.181Zm0-2.277h2.385q2.438-.043,2.438-1.944a1.8,1.8,0,0,0-.618-1.531,3.249,3.249,0,0,0-1.95-.467H14.02ZM31.369,23a3.448,3.448,0,0,1-.312-1.042,3.756,3.756,0,0,1-2.933,1.257,4.127,4.127,0,0,1-2.831-.988,3.178,3.178,0,0,1-1.123-2.492,3.285,3.285,0,0,1,1.37-2.836,6.758,6.758,0,0,1,3.958-1h1.429v-.666a1.915,1.915,0,0,0-.414-1.289,1.627,1.627,0,0,0-1.305-.483,1.85,1.85,0,0,0-1.23.376,1.277,1.277,0,0,0-.446,1.031h-3.1A3.118,3.118,0,0,1,25.052,13a4.118,4.118,0,0,1,1.762-1.348,6.42,6.42,0,0,1,2.557-.489,5.073,5.073,0,0,1,3.411,1.08,3.777,3.777,0,0,1,1.262,3.035v5.038a5.557,5.557,0,0,0,.462,2.5V23ZM28.8,20.841a2.674,2.674,0,0,0,1.268-.306,2.011,2.011,0,0,0,.859-.822v-2h-1.16q-2.331,0-2.481,1.611l-.011.183a1.243,1.243,0,0,0,.408.956A1.586,1.586,0,0,0,28.8,20.841Zm10.914-9.464V23.634A4.158,4.158,0,0,1,38.7,26.625a3.879,3.879,0,0,1-2.943,1.069,6.312,6.312,0,0,1-1.536-.183v-2.46a5.827,5.827,0,0,0,.978.1q1.407,0,1.407-1.493V11.377ZM36.353,8.369a1.529,1.529,0,0,1,.467-1.149,2.021,2.021,0,0,1,2.546,0,1.529,1.529,0,0,1,.467,1.149,1.524,1.524,0,0,1-.478,1.16,1.991,1.991,0,0,1-2.524,0A1.524,1.524,0,0,1,36.353,8.369Zm5.307,8.712A6.893,6.893,0,0,1,42.326,14,4.876,4.876,0,0,1,44.243,11.9a5.594,5.594,0,0,1,2.906-.741A5.293,5.293,0,0,1,50.99,12.6a5.777,5.777,0,0,1,1.66,3.91l.021.795A6.075,6.075,0,0,1,51.177,21.6a5.19,5.19,0,0,1-4.007,1.617A5.216,5.216,0,0,1,43.158,21.6a6.182,6.182,0,0,1-1.5-4.383Zm3.1.226a4.333,4.333,0,0,0,.623,2.53,2.24,2.24,0,0,0,3.545.011,4.741,4.741,0,0,0,.634-2.766,4.29,4.29,0,0,0-.634-2.514,2.061,2.061,0,0,0-1.783-.892,2.028,2.028,0,0,0-1.762.886A4.821,4.821,0,0,0,44.764,17.307Z" transform="translate(-6194.034 -9014.551)" fill="#fff"/>
      <line id="Línea_141" data-name="Línea 141" y1="289.983" transform="translate(-6460.612 -9173.813)" fill="none" stroke="#342287" stroke-width="3"/>
      <path id="Polígono_5" data-name="Polígono 5" d="M9.133,0l9.133,22.833H0Z" transform="translate(-6469.175 -9194.934)" fill="#342287"/>
      <g id="Grupo_84095" data-name="Grupo 84095" transform="translate(-5680 -8879.055) rotate(90)">
        <line id="Línea_142" data-name="Línea 142" y1="747.286" transform="translate(8.925 21.121)" fill="none" stroke="#342287" stroke-width="3"/>
        <path id="Polígono_6" data-name="Polígono 6" d="M9,0l9,22H0Z" transform="translate(0.055 0)" fill="#342287"/>
      </g>
    </g>
  </g>
</svg>
